<mxfile host="app.diagrams.net" modified="2020-09-08T02:33:28.572Z" agent="5.0 (Macintosh; Intel Mac OS X 10_14_3) AppleWebKit/537.36 (KHTML, like Gecko) Chrome/85.0.4183.83 Safari/537.36" etag="HsylVpmtBvFo2WrOwEnG" version="13.6.6" type="github">
  <diagram id="-NbEMk0ir4E4H2hmZE_f" name="Page-1">
    <mxGraphModel dx="1183" dy="741" grid="1" gridSize="10" guides="1" tooltips="1" connect="1" arrows="1" fold="1" page="1" pageScale="1" pageWidth="827" pageHeight="1169" math="0" shadow="0">
      <root>
        <mxCell id="0" />
        <mxCell id="1" parent="0" />
        <mxCell id="hf6cSwr6DA0YgdczarCD-57" style="edgeStyle=orthogonalEdgeStyle;curved=1;rounded=0;orthogonalLoop=1;jettySize=auto;html=1;exitX=0.75;exitY=1;exitDx=0;exitDy=0;entryX=0.5;entryY=0;entryDx=0;entryDy=0;" edge="1" parent="1" source="hf6cSwr6DA0YgdczarCD-4" target="hf6cSwr6DA0YgdczarCD-25">
          <mxGeometry relative="1" as="geometry" />
        </mxCell>
        <mxCell id="hf6cSwr6DA0YgdczarCD-4" value="" style="whiteSpace=wrap;html=1;aspect=fixed;" vertex="1" parent="1">
          <mxGeometry x="10" y="330" width="210" height="210" as="geometry" />
        </mxCell>
        <mxCell id="hf6cSwr6DA0YgdczarCD-5" value="Node" style="rounded=1;whiteSpace=wrap;html=1;" vertex="1" parent="1">
          <mxGeometry x="30" y="360" width="60" height="60" as="geometry" />
        </mxCell>
        <mxCell id="hf6cSwr6DA0YgdczarCD-6" value="Node" style="rounded=1;whiteSpace=wrap;html=1;" vertex="1" parent="1">
          <mxGeometry x="140" y="360" width="60" height="60" as="geometry" />
        </mxCell>
        <mxCell id="hf6cSwr6DA0YgdczarCD-7" value="Node" style="rounded=1;whiteSpace=wrap;html=1;" vertex="1" parent="1">
          <mxGeometry x="30" y="450" width="60" height="60" as="geometry" />
        </mxCell>
        <mxCell id="hf6cSwr6DA0YgdczarCD-8" value="..." style="rounded=1;whiteSpace=wrap;html=1;" vertex="1" parent="1">
          <mxGeometry x="140" y="450" width="60" height="60" as="geometry" />
        </mxCell>
        <mxCell id="hf6cSwr6DA0YgdczarCD-9" value="cn-hangzhou" style="text;html=1;strokeColor=none;fillColor=none;align=center;verticalAlign=middle;whiteSpace=wrap;rounded=0;" vertex="1" parent="1">
          <mxGeometry x="65" y="330" width="100" height="20" as="geometry" />
        </mxCell>
        <mxCell id="hf6cSwr6DA0YgdczarCD-58" style="edgeStyle=orthogonalEdgeStyle;curved=1;rounded=0;orthogonalLoop=1;jettySize=auto;html=1;exitX=0.75;exitY=1;exitDx=0;exitDy=0;" edge="1" parent="1" source="hf6cSwr6DA0YgdczarCD-10">
          <mxGeometry relative="1" as="geometry">
            <mxPoint x="350" y="660" as="targetPoint" />
          </mxGeometry>
        </mxCell>
        <mxCell id="hf6cSwr6DA0YgdczarCD-10" value="" style="whiteSpace=wrap;html=1;aspect=fixed;" vertex="1" parent="1">
          <mxGeometry x="280" y="330" width="210" height="210" as="geometry" />
        </mxCell>
        <mxCell id="hf6cSwr6DA0YgdczarCD-11" value="Node" style="rounded=1;whiteSpace=wrap;html=1;" vertex="1" parent="1">
          <mxGeometry x="300" y="360" width="60" height="60" as="geometry" />
        </mxCell>
        <mxCell id="hf6cSwr6DA0YgdczarCD-12" value="Node" style="rounded=1;whiteSpace=wrap;html=1;" vertex="1" parent="1">
          <mxGeometry x="410" y="360" width="60" height="60" as="geometry" />
        </mxCell>
        <mxCell id="hf6cSwr6DA0YgdczarCD-13" value="Node" style="rounded=1;whiteSpace=wrap;html=1;" vertex="1" parent="1">
          <mxGeometry x="300" y="450" width="60" height="60" as="geometry" />
        </mxCell>
        <mxCell id="hf6cSwr6DA0YgdczarCD-14" value="..." style="rounded=1;whiteSpace=wrap;html=1;" vertex="1" parent="1">
          <mxGeometry x="410" y="450" width="60" height="60" as="geometry" />
        </mxCell>
        <mxCell id="hf6cSwr6DA0YgdczarCD-15" value="cn-beijing" style="text;html=1;strokeColor=none;fillColor=none;align=center;verticalAlign=middle;whiteSpace=wrap;rounded=0;" vertex="1" parent="1">
          <mxGeometry x="335" y="330" width="100" height="20" as="geometry" />
        </mxCell>
        <mxCell id="hf6cSwr6DA0YgdczarCD-59" style="edgeStyle=orthogonalEdgeStyle;curved=1;rounded=0;orthogonalLoop=1;jettySize=auto;html=1;exitX=0.5;exitY=1;exitDx=0;exitDy=0;" edge="1" parent="1" source="hf6cSwr6DA0YgdczarCD-16">
          <mxGeometry relative="1" as="geometry">
            <mxPoint x="350" y="660" as="targetPoint" />
          </mxGeometry>
        </mxCell>
        <mxCell id="hf6cSwr6DA0YgdczarCD-16" value="" style="whiteSpace=wrap;html=1;aspect=fixed;" vertex="1" parent="1">
          <mxGeometry x="560" y="330" width="210" height="210" as="geometry" />
        </mxCell>
        <mxCell id="hf6cSwr6DA0YgdczarCD-17" value="Node" style="rounded=1;whiteSpace=wrap;html=1;" vertex="1" parent="1">
          <mxGeometry x="580" y="360" width="60" height="60" as="geometry" />
        </mxCell>
        <mxCell id="hf6cSwr6DA0YgdczarCD-18" value="Node" style="rounded=1;whiteSpace=wrap;html=1;" vertex="1" parent="1">
          <mxGeometry x="690" y="360" width="60" height="60" as="geometry" />
        </mxCell>
        <mxCell id="hf6cSwr6DA0YgdczarCD-19" value="Node" style="rounded=1;whiteSpace=wrap;html=1;" vertex="1" parent="1">
          <mxGeometry x="580" y="450" width="60" height="60" as="geometry" />
        </mxCell>
        <mxCell id="hf6cSwr6DA0YgdczarCD-20" value="..." style="rounded=1;whiteSpace=wrap;html=1;" vertex="1" parent="1">
          <mxGeometry x="690" y="450" width="60" height="60" as="geometry" />
        </mxCell>
        <mxCell id="hf6cSwr6DA0YgdczarCD-21" value="....." style="text;html=1;strokeColor=none;fillColor=none;align=center;verticalAlign=middle;whiteSpace=wrap;rounded=0;" vertex="1" parent="1">
          <mxGeometry x="615" y="330" width="100" height="20" as="geometry" />
        </mxCell>
        <mxCell id="hf6cSwr6DA0YgdczarCD-40" style="edgeStyle=orthogonalEdgeStyle;rounded=0;orthogonalLoop=1;jettySize=auto;html=1;exitX=1;exitY=0.25;exitDx=0;exitDy=0;entryX=0.02;entryY=0.286;entryDx=0;entryDy=0;entryPerimeter=0;" edge="1" parent="1" source="hf6cSwr6DA0YgdczarCD-25" target="hf6cSwr6DA0YgdczarCD-35">
          <mxGeometry relative="1" as="geometry" />
        </mxCell>
        <mxCell id="hf6cSwr6DA0YgdczarCD-25" value="" style="rounded=0;whiteSpace=wrap;html=1;" vertex="1" parent="1">
          <mxGeometry x="45" y="660" width="615" height="100" as="geometry" />
        </mxCell>
        <mxCell id="hf6cSwr6DA0YgdczarCD-26" value="etcd" style="shape=cylinder2;whiteSpace=wrap;html=1;boundedLbl=1;backgroundOutline=1;size=15;" vertex="1" parent="1">
          <mxGeometry x="730" y="655" width="50" height="70" as="geometry" />
        </mxCell>
        <mxCell id="hf6cSwr6DA0YgdczarCD-28" value="apiserver" style="rounded=0;whiteSpace=wrap;html=1;" vertex="1" parent="1">
          <mxGeometry x="65" y="680" width="95" height="60" as="geometry" />
        </mxCell>
        <mxCell id="hf6cSwr6DA0YgdczarCD-29" value="apiserver" style="rounded=0;whiteSpace=wrap;html=1;" vertex="1" parent="1">
          <mxGeometry x="180" y="680" width="95" height="60" as="geometry" />
        </mxCell>
        <mxCell id="hf6cSwr6DA0YgdczarCD-30" value="apiserver" style="rounded=0;whiteSpace=wrap;html=1;" vertex="1" parent="1">
          <mxGeometry x="290" y="680" width="95" height="60" as="geometry" />
        </mxCell>
        <mxCell id="hf6cSwr6DA0YgdczarCD-31" value="apiserver" style="rounded=0;whiteSpace=wrap;html=1;" vertex="1" parent="1">
          <mxGeometry x="395" y="680" width="95" height="60" as="geometry" />
        </mxCell>
        <mxCell id="hf6cSwr6DA0YgdczarCD-34" value="apiserver" style="rounded=0;whiteSpace=wrap;html=1;" vertex="1" parent="1">
          <mxGeometry x="510" y="680" width="95" height="60" as="geometry" />
        </mxCell>
        <mxCell id="hf6cSwr6DA0YgdczarCD-35" value="etcd" style="shape=cylinder2;whiteSpace=wrap;html=1;boundedLbl=1;backgroundOutline=1;size=15;" vertex="1" parent="1">
          <mxGeometry x="730" y="665" width="50" height="70" as="geometry" />
        </mxCell>
        <mxCell id="hf6cSwr6DA0YgdczarCD-36" value="etcd" style="shape=cylinder2;whiteSpace=wrap;html=1;boundedLbl=1;backgroundOutline=1;size=15;" vertex="1" parent="1">
          <mxGeometry x="730" y="675" width="50" height="70" as="geometry" />
        </mxCell>
        <mxCell id="hf6cSwr6DA0YgdczarCD-37" value="etcd" style="shape=cylinder2;whiteSpace=wrap;html=1;boundedLbl=1;backgroundOutline=1;size=15;" vertex="1" parent="1">
          <mxGeometry x="730" y="685" width="50" height="70" as="geometry" />
        </mxCell>
        <mxCell id="hf6cSwr6DA0YgdczarCD-38" value="etcd" style="shape=cylinder2;whiteSpace=wrap;html=1;boundedLbl=1;backgroundOutline=1;size=15;" vertex="1" parent="1">
          <mxGeometry x="730" y="695" width="50" height="65" as="geometry" />
        </mxCell>
        <mxCell id="hf6cSwr6DA0YgdczarCD-45" value="nginx-proxy" style="rounded=1;whiteSpace=wrap;html=1;" vertex="1" parent="1">
          <mxGeometry x="150" y="500" width="70" height="20" as="geometry" />
        </mxCell>
        <mxCell id="hf6cSwr6DA0YgdczarCD-46" value="nginx-proxy" style="rounded=1;whiteSpace=wrap;html=1;" vertex="1" parent="1">
          <mxGeometry x="45" y="500" width="70" height="20" as="geometry" />
        </mxCell>
        <mxCell id="hf6cSwr6DA0YgdczarCD-47" value="nginx-proxy" style="rounded=1;whiteSpace=wrap;html=1;" vertex="1" parent="1">
          <mxGeometry x="40" y="410" width="70" height="20" as="geometry" />
        </mxCell>
        <mxCell id="hf6cSwr6DA0YgdczarCD-48" value="nginx-proxy" style="rounded=1;whiteSpace=wrap;html=1;" vertex="1" parent="1">
          <mxGeometry x="150" y="410" width="70" height="20" as="geometry" />
        </mxCell>
        <mxCell id="hf6cSwr6DA0YgdczarCD-49" value="nginx-proxy" style="rounded=1;whiteSpace=wrap;html=1;" vertex="1" parent="1">
          <mxGeometry x="315" y="410" width="70" height="20" as="geometry" />
        </mxCell>
        <mxCell id="hf6cSwr6DA0YgdczarCD-50" value="nginx-proxy" style="rounded=1;whiteSpace=wrap;html=1;" vertex="1" parent="1">
          <mxGeometry x="315" y="500" width="70" height="20" as="geometry" />
        </mxCell>
        <mxCell id="hf6cSwr6DA0YgdczarCD-51" value="nginx-proxy" style="rounded=1;whiteSpace=wrap;html=1;" vertex="1" parent="1">
          <mxGeometry x="420" y="410" width="70" height="20" as="geometry" />
        </mxCell>
        <mxCell id="hf6cSwr6DA0YgdczarCD-52" value="nginx-proxy" style="rounded=1;whiteSpace=wrap;html=1;" vertex="1" parent="1">
          <mxGeometry x="420" y="500" width="70" height="20" as="geometry" />
        </mxCell>
        <mxCell id="hf6cSwr6DA0YgdczarCD-53" value="nginx-proxy" style="rounded=1;whiteSpace=wrap;html=1;" vertex="1" parent="1">
          <mxGeometry x="600" y="410" width="70" height="20" as="geometry" />
        </mxCell>
        <mxCell id="hf6cSwr6DA0YgdczarCD-54" value="nginx-proxy" style="rounded=1;whiteSpace=wrap;html=1;" vertex="1" parent="1">
          <mxGeometry x="700" y="410" width="70" height="20" as="geometry" />
        </mxCell>
        <mxCell id="hf6cSwr6DA0YgdczarCD-55" value="nginx-proxy" style="rounded=1;whiteSpace=wrap;html=1;" vertex="1" parent="1">
          <mxGeometry x="590" y="500" width="70" height="20" as="geometry" />
        </mxCell>
        <mxCell id="hf6cSwr6DA0YgdczarCD-56" value="nginx-proxy" style="rounded=1;whiteSpace=wrap;html=1;" vertex="1" parent="1">
          <mxGeometry x="700" y="500" width="70" height="20" as="geometry" />
        </mxCell>
        <mxCell id="hf6cSwr6DA0YgdczarCD-61" style="edgeStyle=orthogonalEdgeStyle;curved=1;rounded=0;orthogonalLoop=1;jettySize=auto;html=1;exitX=0.4;exitY=0.1;exitDx=0;exitDy=0;exitPerimeter=0;entryX=0.5;entryY=1;entryDx=0;entryDy=0;" edge="1" parent="1" source="hf6cSwr6DA0YgdczarCD-60" target="hf6cSwr6DA0YgdczarCD-25">
          <mxGeometry relative="1" as="geometry" />
        </mxCell>
        <mxCell id="hf6cSwr6DA0YgdczarCD-60" value="SLB" style="ellipse;shape=cloud;whiteSpace=wrap;html=1;" vertex="1" parent="1">
          <mxGeometry x="280" y="820" width="120" height="80" as="geometry" />
        </mxCell>
        <mxCell id="hf6cSwr6DA0YgdczarCD-63" style="edgeStyle=orthogonalEdgeStyle;curved=1;rounded=0;orthogonalLoop=1;jettySize=auto;html=1;exitX=0;exitY=0.3333333333333333;exitDx=0;exitDy=0;exitPerimeter=0;entryX=0.875;entryY=0.5;entryDx=0;entryDy=0;entryPerimeter=0;" edge="1" parent="1" source="hf6cSwr6DA0YgdczarCD-62" target="hf6cSwr6DA0YgdczarCD-60">
          <mxGeometry relative="1" as="geometry" />
        </mxCell>
        <mxCell id="hf6cSwr6DA0YgdczarCD-62" value="" style="shape=umlActor;verticalLabelPosition=bottom;verticalAlign=top;html=1;outlineConnect=0;" vertex="1" parent="1">
          <mxGeometry x="580" y="810" width="35" height="40" as="geometry" />
        </mxCell>
        <mxCell id="hf6cSwr6DA0YgdczarCD-65" value="kubectl&lt;br&gt;out-of-cluster" style="text;html=1;strokeColor=none;fillColor=none;align=center;verticalAlign=middle;whiteSpace=wrap;rounded=0;" vertex="1" parent="1">
          <mxGeometry x="640" y="820" width="110" height="30" as="geometry" />
        </mxCell>
      </root>
    </mxGraphModel>
  </diagram>
</mxfile>
